<svg xmlns="http://www.w3.org/2000/svg" width="30.63" height="23.81" viewBox="0 0 30.63 23.81">
  <g id="aa497449-7e7c-46d4-8dce-22d0e1788b9d" data-name="Capa 2">
    <g id="eec459e7-1e34-4ecc-95f2-215721c22051" data-name="Capa 1">
      <path d="M30.39,11.67,25.94,8V.64A.64.64,0,0,0,25.31,0h-3a.64.64,0,0,0-.64.64V4.5L16.93.58a2.56,2.56,0,0,0-3.24,0L.23,11.67a.62.62,0,0,0-.08.89L1.5,14.21a.64.64,0,0,0,.43.23.61.61,0,0,0,.47-.14L14.91,4a.65.65,0,0,1,.81,0L28.23,14.3a.63.63,0,0,0,.89-.09l1.36-1.64a.63.63,0,0,0,.14-.47.63.63,0,0,0-.23-.43ZM14.91,6.18,5.1,14.25V23a.86.86,0,0,0,.86.85h6a.85.85,0,0,0,.85-.85V17.86a.85.85,0,0,1,.85-.85H17a.85.85,0,0,1,.85.85V23a.85.85,0,0,0,.85.85h6a.85.85,0,0,0,.85-.85V14.25l-9.8-8.07a.65.65,0,0,0-.81,0Z" fill="#888"/>
    </g>
  </g>
</svg>
